<?xml version="1.0" standalone="no"?>
<!DOCTYPE svg PUBLIC "-//W3C//DTD SVG 20010904//EN"
 "http://www.w3.org/TR/2001/REC-SVG-20010904/DTD/svg10.dtd">
<svg version="1.0" xmlns="http://www.w3.org/2000/svg"
 width="500.000000pt" height="500.000000pt" viewBox="0 0 500.000000 500.000000"
 preserveAspectRatio="xMidYMid meet">

<g transform="translate(0.000000,500.000000) scale(0.100000,-0.100000)"
fill="#000000" stroke="none">
<path d="M2726 3903 c-14 -27 -44 -75 -64 -108 -106 -167 -153 -249 -150 -260
4 -17 142 -245 148 -245 3 0 25 34 48 76 36 63 46 74 57 63 11 -13 99 -155
145 -234 9 -16 58 -97 109 -180 50 -82 91 -154 91 -160 0 -10 -16 -21 -101
-65 -16 -8 -29 -18 -29 -21 -1 -22 42 -45 155 -83 72 -25 214 -74 318 -110
103 -35 187 -62 187 -60 0 2 -12 23 -27 47 -28 45 -46 73 -110 177 -22 36 -67
108 -99 160 -32 52 -63 102 -69 111 -5 9 -27 45 -48 80 -21 35 -57 93 -79 129
-47 74 -165 265 -281 455 -91 150 -170 275 -172 275 -1 0 -14 -21 -29 -47z"/>
<path d="M2321 3249 c-7 -12 -21 -36 -31 -53 -9 -17 -36 -60 -58 -96 -23 -36
-55 -87 -71 -115 -17 -27 -53 -86 -80 -130 -44 -71 -48 -81 -34 -92 19 -15 18
-17 -21 -30 -16 -5 -37 -24 -50 -45 -11 -20 -40 -67 -63 -105 -22 -37 -40 -69
-39 -70 1 -1 44 13 96 31 52 18 151 52 220 75 69 24 163 57 208 74 l84 30 -27
15 -28 14 32 20 32 21 -38 25 c-58 38 -58 38 -31 79 78 119 80 124 66 141 -8
10 -43 65 -78 125 -35 59 -67 107 -70 107 -3 0 -11 -10 -19 -21z"/>
<path d="M2385 2351 c-23 -10 -46 -29 -53 -45 -17 -39 -16 -200 3 -235 15 -31
77 -61 123 -61 38 1 108 34 121 58 6 12 11 68 11 127 0 98 -2 108 -24 130 -23
23 -82 45 -121 45 -11 0 -38 -9 -60 -19z m113 -67 c19 -13 22 -24 22 -91 0
-88 -14 -113 -64 -113 -55 0 -61 11 -61 105 0 74 3 89 19 101 26 18 56 18 84
-2z"/>
<path d="M3157 2356 c-44 -16 -40 -14 -56 -43 -17 -33 -13 -77 9 -106 20 -25
41 -35 128 -57 39 -10 43 -14 40 -38 -3 -23 -8 -27 -40 -30 -42 -4 -78 12 -78
33 0 11 -12 15 -40 15 -44 0 -45 -2 -29 -48 7 -22 24 -37 53 -51 109 -54 230
6 212 105 -8 40 -42 69 -93 79 -41 7 -88 29 -98 45 -23 37 70 55 105 20 20
-20 80 -28 80 -11 0 71 -107 119 -193 87z"/>
<path d="M1280 2191 l0 -171 40 0 39 0 3 97 3 97 28 -52 c38 -70 62 -70 102 1
l30 52 3 -97 3 -98 34 0 35 0 0 171 0 170 -37 -3 c-35 -3 -40 -8 -79 -76 l-42
-73 -39 73 c-38 71 -40 73 -81 76 l-42 3 0 -170z"/>
<path d="M1920 2190 l0 -171 38 3 37 3 3 63 3 62 59 0 60 0 0 -65 0 -65 40 0
40 0 0 170 0 170 -40 0 -40 0 0 -70 0 -70 -60 0 -59 0 -3 68 -3 67 -37 3 -38
3 0 -171z"/>
<path d="M2710 2231 c0 -71 4 -141 10 -155 12 -31 77 -66 125 -66 48 0 113 35
125 66 6 14 10 84 10 155 l0 129 -35 0 -35 0 0 -118 c0 -137 -10 -162 -65
-162 -55 0 -65 25 -65 162 l0 118 -35 0 -35 0 0 -129z"/>
<path d="M3470 2190 l0 -170 130 0 130 0 0 35 0 35 -90 0 -90 0 0 35 0 35 81
0 80 0 -3 33 -3 32 -77 3 -78 3 0 29 0 30 85 0 85 0 0 35 0 35 -125 0 -125 0
0 -170z"/>
</g>
</svg>
